<?xml version="1.0" standalone="no"?>
<!DOCTYPE svg PUBLIC "-//W3C//DTD SVG 20010904//EN"
 "http://www.w3.org/TR/2001/REC-SVG-20010904/DTD/svg10.dtd">
<svg version="1.0" xmlns="http://www.w3.org/2000/svg"
 width="427.000000pt" height="427.000000pt" viewBox="0 0 427.000000 427.000000"
 preserveAspectRatio="xMidYMid meet">
<metadata>
Created by potrace 1.11, written by Peter Selinger 2001-2013
</metadata>
<g transform="translate(0.000000,427.000000) scale(0.100000,-0.100000)"
fill="#00aa90" stroke="none">
<path d="M2050 4200 c-208 -20 -383 -105 -556 -272 l-72 -68 -93 0 c-200 0
-352 -46 -526 -157 -74 -47 -189 -162 -236 -236 -109 -170 -146 -286 -154
-487 l-6 -135 -67 -70 c-228 -238 -311 -496 -258 -805 28 -168 113 -324 260
-476 l68 -72 0 -93 c0 -200 46 -352 157 -526 47 -74 163 -189 238 -238 175
-112 318 -154 529 -155 l88 0 72 -68 c95 -92 172 -147 271 -193 144 -68 292
-93 452 -78 214 20 383 101 558 269 l70 67 135 6 c202 9 318 45 487 154 74 47
189 162 236 236 111 174 157 326 157 526 l0 93 68 72 c92 95 147 172 193 271
68 144 94 300 78 455 -22 215 -103 382 -271 556 l-68 72 0 73 c-2 231 -39 363
-157 546 -47 74 -162 189 -236 236 -174 111 -326 157 -526 157 l-93 0 -72 68
c-217 209 -454 298 -726 272z m260 -270 c24 -6 68 -24 99 -38 l56 -27 -168 -3
c-93 -1 -241 -1 -330 0 l-162 3 56 27 c133 63 303 77 449 38z m867 -752 l433
-433 0 -610 0 -610 -433 -433 -432 -432 -610 0 -610 0 -432 432 -433 433 0
610 0 610 432 432 433 433 610 0 610 0 432 -432z m-2257 177 c-129 -129 -236
-233 -238 -231 -7 8 39 122 70 174 42 70 150 178 220 220 50 29 149 71 173 72
5 0 -96 -106 -225 -235z m2325 189 c111 -53 217 -151 281 -260 25 -43 68 -154
62 -160 -2 -2 -109 103 -238 232 -252 252 -257 261 -105 188z m-2837 -1571
l-3 -168 -28 59 c-38 80 -58 173 -58 271 0 98 20 191 58 271 l28 59 3 -162 c1
-89 1 -237 0 -330z m3488 431 c37 -83 54 -168 54 -269 0 -49 -7 -118 -15 -151
-14 -62 -59 -174 -69 -174 -4 0 -6 146 -6 325 0 179 2 325 6 325 3 0 16 -25
30 -56z m-2750 -1722 c-6 -6 -117 37 -160 62 -109 64 -207 170 -260 281 -73
152 -64 147 188 -105 129 -129 234 -236 232 -238z m2425 403 c-54 -152 -177
-288 -326 -359 -152 -73 -147 -64 105 188 129 129 236 234 238 232 1 -2 -6
-29 -17 -61z m-1111 -681 c0 -10 -112 -55 -174 -69 -78 -19 -224 -19 -302 0
-62 14 -174 59 -174 69 0 4 146 6 325 6 179 0 325 -2 325 -6z"/>
<path d="M2035 2973 c-46 -24 -85 -64 -110 -113 -41 -82 -504 -1264 -511
-1306 -7 -47 3 -73 49 -122 38 -39 88 -54 140 -42 70 15 92 49 172 263 l48
127 310 -2 310 -3 56 -140 c31 -77 65 -156 76 -175 58 -98 196 -98 263 0 44
65 37 89 -212 705 -125 308 -232 574 -238 590 -42 113 -110 201 -171 224 -42
16 -147 13 -182 -6z m204 -641 c58 -158 106 -292 109 -299 3 -9 -52 -12 -218
-13 -177 0 -221 2 -218 12 3 7 52 142 109 300 57 159 106 288 109 288 3 0 52
-129 109 -288z"/>
</g>
</svg>
